# Blender v2.90.1 OBJ File: 'untitled - 복사본 - 복사본.blend'
# www.blender.org
o Cube.035_Cube.021
v -1.174702 -0.240128 2.509425
v 0.025298 -0.240128 2.509425
v -1.174702 -0.240128 2.309425
v 0.025298 -0.240128 2.309425
v -1.174702 -1.240128 2.509425
v 0.025298 -1.240128 2.509425
v -1.174702 -1.240128 2.309425
v 0.025298 -1.240128 2.309425
v -2.152364 -2.029601 2.491621
v -2.152364 0.970399 2.491621
v -2.152364 -2.029601 -2.508379
v -2.152364 0.970399 -2.508379
v -1.952363 -2.029601 2.491621
v -1.952364 0.970399 2.491621
v -1.952363 -2.029601 -2.508379
v -1.952364 0.970399 -2.508379
v -2.145773 -2.080815 2.491621
v -2.145773 -1.880815 2.491621
v -2.145773 -2.080815 -2.508379
v -2.145773 -1.880815 -2.508379
v 1.854227 -2.080815 2.491621
v 1.854227 -1.880815 2.491621
v 1.854227 -2.080815 -2.508379
v 1.854227 -1.880815 -2.508379
v 1.096841 -1.822254 -2.297617
v -1.680532 0.138918 -2.297617
v 1.096841 -1.822254 -2.497617
v -1.680532 0.138918 -2.497617
v 1.673657 -1.005380 -2.297617
v -1.103717 0.955792 -2.297617
v 1.673657 -1.005380 -2.497617
v -1.103717 0.955792 -2.497617
v -2.099409 -2.029601 2.515668
v -2.099409 0.970399 2.515668
v -2.099409 -2.029601 2.315668
v -2.099409 0.970399 2.315668
v -1.099409 -2.029601 2.515668
v -1.099409 0.970399 2.515668
v -1.099409 -2.029601 2.315668
v -1.099409 0.970399 2.315668
v -2.099409 -2.029601 -2.316458
v -2.099409 0.970399 -2.316458
v -2.099409 -2.029601 -2.516459
v -2.099409 0.970399 -2.516459
v -1.099409 -2.029601 -2.316458
v -1.099409 0.970399 -2.316458
v -1.099409 -2.029601 -2.516459
v -1.099409 0.970399 -2.516459
v -1.289694 -1.036739 -2.316458
v 1.710306 -1.036739 -2.316458
v -1.289694 -1.036739 -2.516459
v 1.710306 -1.036739 -2.516459
v -1.289694 -2.036739 -2.316458
v 1.710306 -2.036739 -2.316458
v -1.289694 -2.036739 -2.516459
v 1.710306 -2.036739 -2.516459
v -1.174702 -0.240128 -2.316458
v 0.025298 -0.240128 -2.316458
v -1.174702 -0.240128 -2.516459
v 0.025298 -0.240128 -2.516459
v -1.174702 -1.240128 -2.316458
v 0.025298 -1.240128 -2.316458
v -1.174702 -1.240128 -2.516459
v 0.025298 -1.240128 -2.516459
v 1.096841 -1.822254 2.528267
v -1.680532 0.138918 2.528267
v 1.096841 -1.822254 2.328267
v -1.680532 0.138918 2.328267
v 1.673657 -1.005380 2.528267
v -1.103717 0.955792 2.528267
v 1.673657 -1.005380 2.328267
v -1.103717 0.955792 2.328267
v -1.289694 -1.036739 2.509425
v 1.710306 -1.036739 2.509425
v -1.289694 -1.036739 2.309425
v 1.710306 -1.036739 2.309425
v -1.289694 -2.036739 2.509425
v 1.710306 -2.036739 2.509425
v -1.289694 -2.036739 2.309425
v 1.710306 -2.036739 2.309425
v 1.735985 -1.051852 2.506093
v 2.735985 -1.051852 2.506093
v 1.735985 -1.051852 -2.493907
v 2.735985 -1.051852 -2.493907
v 1.735985 -1.251852 2.506093
v 2.735985 -1.251852 2.506093
v 1.735985 -1.251852 -2.493907
v 2.735985 -1.251852 -2.493907
v 2.529821 -2.117688 2.485417
v 2.529821 -1.117688 2.485417
v 2.529821 -2.117688 -2.514583
v 2.529821 -1.117688 -2.514583
v 2.729821 -2.117688 2.485417
v 2.729821 -1.117688 2.485417
v 2.729821 -2.117688 -2.514583
v 2.729821 -1.117688 -2.514583
v 1.795868 -2.117688 2.485417
v 1.795868 -1.117688 2.485417
v 1.795868 -2.117688 -2.514583
v 1.795868 -1.117688 -2.514583
v 1.995868 -2.117688 2.485417
v 1.995868 -1.117688 2.485417
v 1.995868 -2.117688 -2.514583
v 1.995868 -1.117688 -2.514583
vt 0.625000 0.000000
vt 0.375000 0.250000
vt 0.375000 0.000000
vt 0.625000 0.250000
vt 0.375000 0.500000
vt 0.625000 0.500000
vt 0.375000 0.750000
vt 0.625000 0.750000
vt 0.375000 1.000000
vt 0.125000 0.750000
vt 0.125000 0.500000
vt 0.875000 0.500000
vt 0.625000 0.000000
vt 0.375000 0.250000
vt 0.375000 0.000000
vt 0.625000 0.250000
vt 0.375000 0.500000
vt 0.625000 0.500000
vt 0.375000 0.750000
vt 0.625000 0.750000
vt 0.375000 1.000000
vt 0.125000 0.750000
vt 0.125000 0.500000
vt 0.875000 0.500000
vt 0.625000 0.000000
vt 0.375000 0.250000
vt 0.375000 0.000000
vt 0.625000 0.250000
vt 0.375000 0.500000
vt 0.625000 0.500000
vt 0.375000 0.750000
vt 0.625000 0.750000
vt 0.375000 1.000000
vt 0.125000 0.750000
vt 0.125000 0.500000
vt 0.875000 0.500000
vt 0.625000 0.000000
vt 0.375000 0.250000
vt 0.375000 0.000000
vt 0.625000 0.250000
vt 0.375000 0.500000
vt 0.625000 0.500000
vt 0.375000 0.750000
vt 0.625000 1.000000
vt 0.375000 1.000000
vt 0.125000 0.750000
vt 0.125000 0.500000
vt 0.875000 0.500000
vt 0.625000 0.750000
vt 0.625000 0.000000
vt 0.375000 0.250000
vt 0.375000 0.000000
vt 0.625000 0.250000
vt 0.375000 0.500000
vt 0.625000 0.500000
vt 0.375000 0.750000
vt 0.625000 0.750000
vt 0.375000 1.000000
vt 0.125000 0.750000
vt 0.125000 0.500000
vt 0.875000 0.500000
vt 0.625000 0.000000
vt 0.375000 0.250000
vt 0.375000 0.000000
vt 0.625000 0.250000
vt 0.375000 0.500000
vt 0.625000 0.500000
vt 0.375000 0.750000
vt 0.625000 0.750000
vt 0.375000 1.000000
vt 0.125000 0.750000
vt 0.125000 0.500000
vt 0.875000 0.500000
vt 0.625000 0.000000
vt 0.375000 0.250000
vt 0.375000 0.000000
vt 0.625000 0.250000
vt 0.375000 0.500000
vt 0.625000 0.500000
vt 0.375000 0.750000
vt 0.625000 0.750000
vt 0.375000 1.000000
vt 0.125000 0.750000
vt 0.125000 0.500000
vt 0.875000 0.500000
vt 0.625000 0.000000
vt 0.375000 0.250000
vt 0.375000 0.000000
vt 0.625000 0.250000
vt 0.375000 0.500000
vt 0.625000 0.500000
vt 0.375000 0.750000
vt 0.625000 0.750000
vt 0.375000 1.000000
vt 0.125000 0.750000
vt 0.125000 0.500000
vt 0.875000 0.500000
vt 0.625000 0.000000
vt 0.375000 0.250000
vt 0.375000 0.000000
vt 0.625000 0.250000
vt 0.375000 0.500000
vt 0.625000 0.500000
vt 0.375000 0.750000
vt 0.625000 1.000000
vt 0.375000 1.000000
vt 0.125000 0.750000
vt 0.125000 0.500000
vt 0.875000 0.500000
vt 0.625000 0.750000
vt 0.625000 0.000000
vt 0.375000 0.250000
vt 0.375000 0.000000
vt 0.625000 0.250000
vt 0.375000 0.500000
vt 0.625000 0.500000
vt 0.375000 0.750000
vt 0.625000 0.750000
vt 0.375000 1.000000
vt 0.125000 0.750000
vt 0.125000 0.500000
vt 0.875000 0.500000
vt 0.625000 0.000000
vt 0.375000 0.250000
vt 0.375000 0.000000
vt 0.625000 0.250000
vt 0.375000 0.500000
vt 0.625000 0.500000
vt 0.375000 0.750000
vt 0.625000 0.750000
vt 0.375000 1.000000
vt 0.125000 0.750000
vt 0.125000 0.500000
vt 0.875000 0.500000
vt 0.625000 0.000000
vt 0.375000 0.250000
vt 0.375000 0.000000
vt 0.625000 0.250000
vt 0.375000 0.500000
vt 0.625000 0.500000
vt 0.375000 0.750000
vt 0.625000 0.750000
vt 0.375000 1.000000
vt 0.125000 0.750000
vt 0.125000 0.500000
vt 0.875000 0.500000
vt 0.625000 0.000000
vt 0.375000 0.250000
vt 0.375000 0.000000
vt 0.625000 0.250000
vt 0.375000 0.500000
vt 0.625000 0.500000
vt 0.375000 0.750000
vt 0.625000 0.750000
vt 0.375000 1.000000
vt 0.125000 0.750000
vt 0.125000 0.500000
vt 0.875000 0.500000
vt 0.625000 1.000000
vt 0.875000 0.750000
vt 0.625000 1.000000
vt 0.875000 0.750000
vt 0.625000 1.000000
vt 0.875000 0.750000
vt 0.875000 0.750000
vt 0.625000 1.000000
vt 0.875000 0.750000
vt 0.625000 1.000000
vt 0.875000 0.750000
vt 0.625000 1.000000
vt 0.875000 0.750000
vt 0.625000 1.000000
vt 0.875000 0.750000
vt 0.875000 0.750000
vt 0.625000 1.000000
vt 0.875000 0.750000
vt 0.625000 1.000000
vt 0.875000 0.750000
vt 0.625000 1.000000
vt 0.875000 0.750000
vt 0.625000 1.000000
vt 0.875000 0.750000
vn 0.0000 1.0000 0.0000
vn 0.0000 0.0000 -1.0000
vn 0.0000 -1.0000 0.0000
vn 0.0000 0.0000 1.0000
vn -1.0000 0.0000 0.0000
vn 1.0000 0.0000 0.0000
vn -0.5768 -0.8169 0.0000
vn 0.5768 0.8169 0.0000
vn 0.8169 -0.5768 0.0000
vn -0.8169 0.5768 0.0000
s off
f 2/1/1 3/2/1 1/3/1
f 4/4/2 7/5/2 3/2/2
f 8/6/3 5/7/3 7/5/3
f 6/8/4 1/9/4 5/7/4
f 7/5/5 1/10/5 3/11/5
f 4/12/6 6/8/6 8/6/6
f 10/13/5 11/14/5 9/15/5
f 12/16/2 15/17/2 11/14/2
f 16/18/6 13/19/6 15/17/6
f 14/20/4 9/21/4 13/19/4
f 15/17/3 9/22/3 11/23/3
f 12/24/1 14/20/1 16/18/1
f 18/25/5 19/26/5 17/27/5
f 20/28/2 23/29/2 19/26/2
f 24/30/6 21/31/6 23/29/6
f 22/32/4 17/33/4 21/31/4
f 23/29/3 17/34/3 19/35/3
f 20/36/1 22/32/1 24/30/1
f 26/37/7 27/38/7 25/39/7
f 28/40/2 31/41/2 27/38/2
f 32/42/8 29/43/8 31/41/8
f 29/43/4 26/44/4 25/45/4
f 31/41/9 25/46/9 27/47/9
f 28/48/10 30/49/10 32/42/10
f 34/50/5 35/51/5 33/52/5
f 36/53/2 39/54/2 35/51/2
f 40/55/6 37/56/6 39/54/6
f 38/57/4 33/58/4 37/56/4
f 39/54/3 33/59/3 35/60/3
f 36/61/1 38/57/1 40/55/1
f 42/62/5 43/63/5 41/64/5
f 44/65/2 47/66/2 43/63/2
f 48/67/6 45/68/6 47/66/6
f 46/69/4 41/70/4 45/68/4
f 47/66/3 41/71/3 43/72/3
f 44/73/1 46/69/1 48/67/1
f 50/74/1 51/75/1 49/76/1
f 52/77/2 55/78/2 51/75/2
f 56/79/3 53/80/3 55/78/3
f 54/81/4 49/82/4 53/80/4
f 55/78/5 49/83/5 51/84/5
f 52/85/6 54/81/6 56/79/6
f 58/86/1 59/87/1 57/88/1
f 60/89/2 63/90/2 59/87/2
f 64/91/3 61/92/3 63/90/3
f 62/93/4 57/94/4 61/92/4
f 63/90/5 57/95/5 59/96/5
f 60/97/6 62/93/6 64/91/6
f 66/98/7 67/99/7 65/100/7
f 68/101/2 71/102/2 67/99/2
f 72/103/8 69/104/8 71/102/8
f 69/104/4 66/105/4 65/106/4
f 71/102/9 65/107/9 67/108/9
f 68/109/10 70/110/10 72/103/10
f 74/111/1 75/112/1 73/113/1
f 76/114/2 79/115/2 75/112/2
f 80/116/3 77/117/3 79/115/3
f 78/118/4 73/119/4 77/117/4
f 79/115/5 73/120/5 75/121/5
f 76/122/6 78/118/6 80/116/6
f 82/123/1 83/124/1 81/125/1
f 84/126/2 87/127/2 83/124/2
f 88/128/3 85/129/3 87/127/3
f 86/130/4 81/131/4 85/129/4
f 87/127/5 81/132/5 83/133/5
f 84/134/6 86/130/6 88/128/6
f 90/135/5 91/136/5 89/137/5
f 92/138/2 95/139/2 91/136/2
f 96/140/6 93/141/6 95/139/6
f 94/142/4 89/143/4 93/141/4
f 95/139/3 89/144/3 91/145/3
f 92/146/1 94/142/1 96/140/1
f 98/147/5 99/148/5 97/149/5
f 100/150/2 103/151/2 99/148/2
f 104/152/6 101/153/6 103/151/6
f 102/154/4 97/155/4 101/153/4
f 103/151/3 97/156/3 99/157/3
f 100/158/1 102/154/1 104/152/1
f 2/1/1 4/4/1 3/2/1
f 4/4/2 8/6/2 7/5/2
f 8/6/3 6/8/3 5/7/3
f 6/8/4 2/159/4 1/9/4
f 7/5/5 5/7/5 1/10/5
f 4/12/6 2/160/6 6/8/6
f 10/13/5 12/16/5 11/14/5
f 12/16/2 16/18/2 15/17/2
f 16/18/6 14/20/6 13/19/6
f 14/20/4 10/161/4 9/21/4
f 15/17/3 13/19/3 9/22/3
f 12/24/1 10/162/1 14/20/1
f 18/25/5 20/28/5 19/26/5
f 20/28/2 24/30/2 23/29/2
f 24/30/6 22/32/6 21/31/6
f 22/32/4 18/163/4 17/33/4
f 23/29/3 21/31/3 17/34/3
f 20/36/1 18/164/1 22/32/1
f 26/37/7 28/40/7 27/38/7
f 28/40/2 32/42/2 31/41/2
f 32/42/8 30/49/8 29/43/8
f 29/43/4 30/49/4 26/44/4
f 31/41/9 29/43/9 25/46/9
f 28/48/10 26/165/10 30/49/10
f 34/50/5 36/53/5 35/51/5
f 36/53/2 40/55/2 39/54/2
f 40/55/6 38/57/6 37/56/6
f 38/57/4 34/166/4 33/58/4
f 39/54/3 37/56/3 33/59/3
f 36/61/1 34/167/1 38/57/1
f 42/62/5 44/65/5 43/63/5
f 44/65/2 48/67/2 47/66/2
f 48/67/6 46/69/6 45/68/6
f 46/69/4 42/168/4 41/70/4
f 47/66/3 45/68/3 41/71/3
f 44/73/1 42/169/1 46/69/1
f 50/74/1 52/77/1 51/75/1
f 52/77/2 56/79/2 55/78/2
f 56/79/3 54/81/3 53/80/3
f 54/81/4 50/170/4 49/82/4
f 55/78/5 53/80/5 49/83/5
f 52/85/6 50/171/6 54/81/6
f 58/86/1 60/89/1 59/87/1
f 60/89/2 64/91/2 63/90/2
f 64/91/3 62/93/3 61/92/3
f 62/93/4 58/172/4 57/94/4
f 63/90/5 61/92/5 57/95/5
f 60/97/6 58/173/6 62/93/6
f 66/98/7 68/101/7 67/99/7
f 68/101/2 72/103/2 71/102/2
f 72/103/8 70/110/8 69/104/8
f 69/104/4 70/110/4 66/105/4
f 71/102/9 69/104/9 65/107/9
f 68/109/10 66/174/10 70/110/10
f 74/111/1 76/114/1 75/112/1
f 76/114/2 80/116/2 79/115/2
f 80/116/3 78/118/3 77/117/3
f 78/118/4 74/175/4 73/119/4
f 79/115/5 77/117/5 73/120/5
f 76/122/6 74/176/6 78/118/6
f 82/123/1 84/126/1 83/124/1
f 84/126/2 88/128/2 87/127/2
f 88/128/3 86/130/3 85/129/3
f 86/130/4 82/177/4 81/131/4
f 87/127/5 85/129/5 81/132/5
f 84/134/6 82/178/6 86/130/6
f 90/135/5 92/138/5 91/136/5
f 92/138/2 96/140/2 95/139/2
f 96/140/6 94/142/6 93/141/6
f 94/142/4 90/179/4 89/143/4
f 95/139/3 93/141/3 89/144/3
f 92/146/1 90/180/1 94/142/1
f 98/147/5 100/150/5 99/148/5
f 100/150/2 104/152/2 103/151/2
f 104/152/6 102/154/6 101/153/6
f 102/154/4 98/181/4 97/155/4
f 103/151/3 101/153/3 97/156/3
f 100/158/1 98/182/1 102/154/1
o Cube.021_Cube.034
v 3.191343 -1.050267 1.894495
v 3.191343 -0.850267 1.894495
v 3.191343 -1.050267 0.294495
v 3.191343 -0.850267 0.294495
v 4.191343 -1.050267 1.894495
v 4.191343 -0.850267 1.894495
v 4.191343 -1.050267 0.294495
v 4.191343 -0.850267 0.294495
v 3.673721 -1.122985 0.290810
v 3.673721 -0.922985 0.290810
v 3.673721 -1.122985 -0.009190
v 3.673721 -0.922985 -0.009190
v 3.973721 -1.122985 0.290810
v 3.973721 -0.922985 0.290810
v 3.973721 -1.122985 -0.009190
v 3.973721 -0.922985 -0.009190
v 3.909478 -0.987629 0.230196
v 4.050900 -0.846208 0.230196
v 3.909478 -0.987629 -0.009804
v 4.050900 -0.846208 -0.009804
v 4.121610 -1.199761 0.230196
v 4.263031 -1.058340 0.230196
v 4.121610 -1.199761 -0.009804
v 4.263031 -1.058340 -0.009804
v 2.452473 -1.058435 1.551612
v 2.452473 -0.818435 1.551612
v 2.452473 -1.058435 0.551613
v 2.452473 -0.818435 0.551613
v 3.452473 -1.058435 1.551612
v 3.452473 -0.818435 1.551612
v 3.452473 -1.058435 0.551613
v 3.452473 -0.818435 0.551613
vt 0.625000 0.000000
vt 0.375000 0.250000
vt 0.375000 0.000000
vt 0.625000 0.250000
vt 0.375000 0.500000
vt 0.625000 0.500000
vt 0.375000 0.750000
vt 0.625000 0.750000
vt 0.375000 1.000000
vt 0.125000 0.750000
vt 0.125000 0.500000
vt 0.875000 0.500000
vt 0.625000 0.000000
vt 0.375000 0.250000
vt 0.375000 0.000000
vt 0.625000 0.250000
vt 0.375000 0.500000
vt 0.625000 0.500000
vt 0.375000 0.750000
vt 0.625000 0.750000
vt 0.375000 1.000000
vt 0.125000 0.750000
vt 0.125000 0.500000
vt 0.875000 0.500000
vt 0.625000 0.000000
vt 0.375000 0.250000
vt 0.375000 0.000000
vt 0.625000 0.500000
vt 0.375000 0.500000
vt 0.375000 0.750000
vt 0.625000 0.750000
vt 0.375000 1.000000
vt 0.125000 0.750000
vt 0.125000 0.500000
vt 0.875000 0.500000
vt 0.625000 0.000000
vt 0.375000 0.250000
vt 0.375000 0.000000
vt 0.625000 0.250000
vt 0.375000 0.500000
vt 0.625000 0.500000
vt 0.375000 0.750000
vt 0.625000 0.750000
vt 0.375000 1.000000
vt 0.125000 0.750000
vt 0.125000 0.500000
vt 0.875000 0.500000
vt 0.625000 1.000000
vt 0.875000 0.750000
vt 0.625000 1.000000
vt 0.875000 0.750000
vt 0.625000 0.250000
vt 0.625000 1.000000
vt 0.875000 0.750000
vt 0.625000 1.000000
vt 0.875000 0.750000
vn -0.5773 0.5773 0.5773
vn -0.5773 -0.5773 -0.5773
vn -0.5773 -0.5773 0.5773
vn -0.5773 0.5773 -0.5773
vn 0.5773 -0.5773 -0.5773
vn 0.5773 0.5773 -0.5773
vn 0.5773 -0.5773 0.5773
vn 0.5773 0.5773 0.5773
vn 0.0000 0.8165 0.5773
vn -0.8165 0.0000 -0.5773
vn -0.8165 0.0000 0.5773
vn 0.8165 0.0000 -0.5773
vn 0.0000 -0.8165 -0.5773
vn 0.0000 -0.8165 0.5773
vn 0.8165 0.0000 0.5773
vn 0.0000 0.8165 -0.5773
s 1
f 106/183/11 107/184/12 105/185/13
f 108/186/14 111/187/15 107/184/12
f 112/188/16 109/189/17 111/187/15
f 110/190/18 105/191/13 109/189/17
f 111/187/15 105/192/13 107/193/12
f 108/194/14 110/190/18 112/188/16
f 114/195/11 115/196/12 113/197/13
f 116/198/14 119/199/15 115/196/12
f 120/200/16 117/201/17 119/199/15
f 118/202/18 113/203/13 117/201/17
f 119/199/15 113/204/13 115/205/12
f 116/206/14 118/202/18 120/200/16
f 122/207/19 123/208/20 121/209/21
f 123/208/20 128/210/22 127/211/23
f 128/210/22 125/212/24 127/211/23
f 126/213/25 121/214/21 125/212/24
f 127/211/23 121/215/21 123/216/20
f 124/217/26 126/213/25 128/210/22
f 130/218/11 131/219/12 129/220/13
f 132/221/14 135/222/15 131/219/12
f 136/223/16 133/224/17 135/222/15
f 134/225/18 129/226/13 133/224/17
f 135/222/15 129/227/13 131/228/12
f 132/229/14 134/225/18 136/223/16
f 106/183/11 108/186/14 107/184/12
f 108/186/14 112/188/16 111/187/15
f 112/188/16 110/190/18 109/189/17
f 110/190/18 106/230/11 105/191/13
f 111/187/15 109/189/17 105/192/13
f 108/194/14 106/231/11 110/190/18
f 114/195/11 116/198/14 115/196/12
f 116/198/14 120/200/16 119/199/15
f 120/200/16 118/202/18 117/201/17
f 118/202/18 114/232/11 113/203/13
f 119/199/15 117/201/17 113/204/13
f 116/206/14 114/233/11 118/202/18
f 122/207/19 124/234/26 123/208/20
f 123/208/20 124/234/26 128/210/22
f 128/210/22 126/213/25 125/212/24
f 126/213/25 122/235/19 121/214/21
f 127/211/23 125/212/24 121/215/21
f 124/217/26 122/236/19 126/213/25
f 130/218/11 132/221/14 131/219/12
f 132/221/14 136/223/16 135/222/15
f 136/223/16 134/225/18 133/224/17
f 134/225/18 130/237/11 129/226/13
f 135/222/15 133/224/17 129/227/13
f 132/229/14 130/238/11 134/225/18
o Cube.023_Cube.001
v 2.465888 -1.067451 -0.584245
v 2.465888 -0.827451 -0.584245
v 2.465888 -1.067451 -1.584245
v 2.465888 -0.827451 -1.584245
v 3.465888 -1.067451 -0.584245
v 3.465888 -0.827451 -0.584245
v 3.465888 -1.067451 -1.584245
v 3.465888 -0.827451 -1.584245
v 3.191343 -1.050267 -0.366519
v 3.191343 -0.850267 -0.366519
v 3.191343 -1.050267 -1.966519
v 3.191343 -0.850267 -1.966519
v 4.191343 -1.050267 -0.366519
v 4.191343 -0.850267 -0.366519
v 4.191343 -1.050267 -1.966519
v 4.191343 -0.850267 -1.966519
v 3.673721 -1.122984 -0.049859
v 3.673721 -0.922984 -0.049859
v 3.673721 -1.122984 -0.349859
v 3.673721 -0.922984 -0.349859
v 3.973721 -1.122984 -0.049859
v 3.973721 -0.922984 -0.049859
v 3.973721 -1.122984 -0.349859
v 3.973721 -0.922984 -0.349859
v 3.909478 -0.987629 -0.043138
v 4.050900 -0.846208 -0.043138
v 3.909478 -0.987629 -0.283138
v 4.050900 -0.846208 -0.283138
v 4.121610 -1.199761 -0.043138
v 4.263031 -1.058340 -0.043138
v 4.121610 -1.199761 -0.283138
v 4.263031 -1.058340 -0.283138
vt 0.625000 0.000000
vt 0.375000 0.250000
vt 0.375000 0.000000
vt 0.625000 0.250000
vt 0.375000 0.500000
vt 0.625000 0.500000
vt 0.375000 0.750000
vt 0.625000 0.750000
vt 0.375000 1.000000
vt 0.125000 0.750000
vt 0.125000 0.500000
vt 0.875000 0.500000
vt 0.625000 0.000000
vt 0.375000 0.250000
vt 0.375000 0.000000
vt 0.625000 0.250000
vt 0.375000 0.500000
vt 0.625000 0.500000
vt 0.375000 0.750000
vt 0.625000 0.750000
vt 0.375000 1.000000
vt 0.125000 0.750000
vt 0.125000 0.500000
vt 0.875000 0.500000
vt 0.625000 0.000000
vt 0.375000 0.250000
vt 0.375000 0.000000
vt 0.625000 0.250000
vt 0.375000 0.500000
vt 0.625000 0.500000
vt 0.375000 0.750000
vt 0.625000 0.750000
vt 0.375000 1.000000
vt 0.125000 0.750000
vt 0.125000 0.500000
vt 0.875000 0.500000
vt 0.625000 0.000000
vt 0.375000 0.250000
vt 0.375000 0.000000
vt 0.625000 0.500000
vt 0.375000 0.500000
vt 0.375000 0.750000
vt 0.625000 0.750000
vt 0.375000 1.000000
vt 0.125000 0.750000
vt 0.125000 0.500000
vt 0.875000 0.500000
vt 0.625000 1.000000
vt 0.875000 0.750000
vt 0.625000 1.000000
vt 0.875000 0.750000
vt 0.625000 1.000000
vt 0.875000 0.750000
vt 0.625000 0.250000
vt 0.625000 1.000000
vt 0.875000 0.750000
vn -0.5773 0.5773 0.5773
vn -0.5773 -0.5773 -0.5773
vn -0.5773 -0.5773 0.5773
vn -0.5773 0.5773 -0.5773
vn 0.5773 -0.5773 -0.5773
vn 0.5773 0.5773 -0.5773
vn 0.5773 -0.5773 0.5773
vn 0.5773 0.5773 0.5773
vn 0.0000 0.8165 0.5773
vn -0.8165 0.0000 -0.5773
vn -0.8165 0.0000 0.5773
vn 0.8165 0.0000 -0.5773
vn 0.0000 -0.8165 -0.5773
vn 0.0000 -0.8165 0.5773
vn 0.8165 0.0000 0.5773
vn 0.0000 0.8165 -0.5773
s 1
f 138/239/27 139/240/28 137/241/29
f 140/242/30 143/243/31 139/240/28
f 144/244/32 141/245/33 143/243/31
f 142/246/34 137/247/29 141/245/33
f 143/243/31 137/248/29 139/249/28
f 140/250/30 142/246/34 144/244/32
f 146/251/27 147/252/28 145/253/29
f 148/254/30 151/255/31 147/252/28
f 152/256/32 149/257/33 151/255/31
f 150/258/34 145/259/29 149/257/33
f 151/255/31 145/260/29 147/261/28
f 148/262/30 150/258/34 152/256/32
f 154/263/27 155/264/28 153/265/29
f 156/266/30 159/267/31 155/264/28
f 160/268/32 157/269/33 159/267/31
f 158/270/34 153/271/29 157/269/33
f 159/267/31 153/272/29 155/273/28
f 156/274/30 158/270/34 160/268/32
f 162/275/35 163/276/36 161/277/37
f 163/276/36 168/278/38 167/279/39
f 168/278/38 165/280/40 167/279/39
f 166/281/41 161/282/37 165/280/40
f 167/279/39 161/283/37 163/284/36
f 164/285/42 166/281/41 168/278/38
f 138/239/27 140/242/30 139/240/28
f 140/242/30 144/244/32 143/243/31
f 144/244/32 142/246/34 141/245/33
f 142/246/34 138/286/27 137/247/29
f 143/243/31 141/245/33 137/248/29
f 140/250/30 138/287/27 142/246/34
f 146/251/27 148/254/30 147/252/28
f 148/254/30 152/256/32 151/255/31
f 152/256/32 150/258/34 149/257/33
f 150/258/34 146/288/27 145/259/29
f 151/255/31 149/257/33 145/260/29
f 148/262/30 146/289/27 150/258/34
f 154/263/27 156/266/30 155/264/28
f 156/266/30 160/268/32 159/267/31
f 160/268/32 158/270/34 157/269/33
f 158/270/34 154/290/27 153/271/29
f 159/267/31 157/269/33 153/272/29
f 156/274/30 154/291/27 158/270/34
f 162/275/35 164/292/42 163/276/36
f 163/276/36 164/292/42 168/278/38
f 168/278/38 166/281/41 165/280/40
f 166/281/41 162/293/35 161/282/37
f 167/279/39 165/280/40 161/283/37
f 164/285/42 162/294/35 166/281/41
