# Blender v2.90.1 OBJ File: 'untitled - 복사본 - 복사본.blend'
# www.blender.org
o Cube.014_Cube.042
v -0.040448 -0.084668 -0.382564
v 0.100973 0.056753 -0.382564
v -0.040448 -0.084668 -0.642564
v 0.100973 0.056753 -0.642564
v 0.383816 -0.508932 -0.382564
v 0.525237 -0.367511 -0.382564
v 0.383816 -0.508932 -0.642564
v 0.525237 -0.367511 -0.642564
vt 0.625000 0.000000
vt 0.375000 0.250000
vt 0.375000 0.000000
vt 0.625000 0.250000
vt 0.375000 0.500000
vt 0.625000 0.500000
vt 0.375000 0.750000
vt 0.625000 0.750000
vt 0.375000 1.000000
vt 0.125000 0.750000
vt 0.125000 0.500000
vt 0.875000 0.500000
vt 0.625000 1.000000
vt 0.875000 0.750000
vn 0.0000 0.8165 0.5773
vn -0.8165 0.0000 -0.5773
vn -0.8165 0.0000 0.5773
vn 0.0000 0.8165 -0.5773
vn 0.0000 -0.8165 -0.5773
vn 0.8165 0.0000 -0.5773
vn 0.0000 -0.8165 0.5773
vn 0.8165 0.0000 0.5773
s 1
f 2/1/1 3/2/2 1/3/3
f 4/4/4 7/5/5 3/2/2
f 8/6/6 5/7/7 7/5/5
f 6/8/8 1/9/3 5/7/7
f 7/5/5 1/10/3 3/11/2
f 4/12/4 6/8/8 8/6/6
f 2/1/1 4/4/4 3/2/2
f 4/4/4 8/6/6 7/5/5
f 8/6/6 6/8/8 5/7/7
f 6/8/8 2/13/1 1/9/3
f 7/5/5 5/7/7 1/10/3
f 4/12/4 2/14/1 6/8/8
o Cube.015_Cube.043
v 0.388112 -0.399140 -0.382564
v 0.588112 -0.399140 -0.382564
v 0.388112 -0.399140 -0.642564
v 0.588112 -0.399140 -0.642564
v 0.388112 -0.799140 -0.382564
v 0.588112 -0.799140 -0.382564
v 0.388112 -0.799140 -0.642564
v 0.588112 -0.799140 -0.642564
vt 0.625000 0.000000
vt 0.375000 0.250000
vt 0.375000 0.000000
vt 0.625000 0.250000
vt 0.375000 0.500000
vt 0.625000 0.500000
vt 0.375000 0.750000
vt 0.625000 0.750000
vt 0.375000 1.000000
vt 0.125000 0.750000
vt 0.125000 0.500000
vt 0.875000 0.500000
vt 0.625000 1.000000
vt 0.875000 0.750000
vn 0.5773 0.5773 0.5773
vn -0.5773 0.5773 -0.5773
vn -0.5773 0.5773 0.5773
vn 0.5773 0.5773 -0.5773
vn -0.5773 -0.5773 -0.5773
vn 0.5773 -0.5773 -0.5773
vn -0.5773 -0.5773 0.5773
vn 0.5773 -0.5773 0.5773
s 1
f 10/15/9 11/16/10 9/17/11
f 12/18/12 15/19/13 11/16/10
f 16/20/14 13/21/15 15/19/13
f 14/22/16 9/23/11 13/21/15
f 15/19/13 9/24/11 11/25/10
f 12/26/12 14/22/16 16/20/14
f 10/15/9 12/18/12 11/16/10
f 12/18/12 16/20/14 15/19/13
f 16/20/14 14/22/16 13/21/15
f 14/22/16 10/27/9 9/23/11
f 15/19/13 13/21/15 9/24/11
f 12/26/12 10/28/9 14/22/16
