# Blender v2.90.1 OBJ File: 'untitled - 복사본 - 복사본.blend'
# www.blender.org
o Cylinder_roller_Cylinder.019
v 0.000000 0.251579 -3.130176
v 0.000000 0.251579 2.869824
v 0.058527 0.245815 -3.130176
v 0.058527 0.245814 2.869824
v 0.114805 0.228743 -3.130176
v 0.114805 0.228743 2.869824
v 0.166671 0.201020 -3.130176
v 0.166671 0.201020 2.869824
v 0.212132 0.163711 -3.130176
v 0.212132 0.163711 2.869824
v 0.249441 0.118250 -3.130176
v 0.249441 0.118250 2.869824
v 0.277164 0.066384 -3.130176
v 0.277164 0.066384 2.869824
v 0.294236 0.010106 -3.130176
v 0.294236 0.010106 2.869824
v 0.300000 -0.048421 -3.130176
v 0.300000 -0.048421 2.869824
v 0.294236 -0.106948 -3.130176
v 0.294236 -0.106948 2.869824
v 0.277164 -0.163226 -3.130176
v 0.277164 -0.163226 2.869824
v 0.249441 -0.215092 -3.130176
v 0.249441 -0.215092 2.869824
v 0.212132 -0.260553 -3.130176
v 0.212132 -0.260553 2.869824
v 0.166671 -0.297862 -3.130176
v 0.166671 -0.297862 2.869824
v 0.114805 -0.325585 -3.130176
v 0.114805 -0.325585 2.869824
v 0.058527 -0.342657 -3.130176
v 0.058527 -0.342657 2.869824
v -0.000000 -0.348421 -3.130176
v -0.000000 -0.348421 2.869824
v -0.058527 -0.342657 -3.130176
v -0.058527 -0.342657 2.869824
v -0.114805 -0.325585 -3.130176
v -0.114805 -0.325585 2.869824
v -0.166671 -0.297862 -3.130176
v -0.166671 -0.297862 2.869824
v -0.212132 -0.260553 -3.130176
v -0.212132 -0.260553 2.869824
v -0.249441 -0.215092 -3.130176
v -0.249441 -0.215092 2.869824
v -0.277164 -0.163226 -3.130176
v -0.277164 -0.163226 2.869824
v -0.294236 -0.106948 -3.130176
v -0.294236 -0.106948 2.869824
v -0.300000 -0.048421 -3.130176
v -0.300000 -0.048421 2.869824
v -0.294236 0.010106 -3.130176
v -0.294236 0.010106 2.869824
v -0.277164 0.066384 -3.130176
v -0.277164 0.066384 2.869824
v -0.249441 0.118250 -3.130176
v -0.249441 0.118250 2.869824
v -0.212132 0.163711 -3.130176
v -0.212132 0.163711 2.869824
v -0.166671 0.201020 -3.130176
v -0.166671 0.201020 2.869824
v -0.114805 0.228743 -3.130176
v -0.114805 0.228743 2.869824
v -0.058527 0.245815 -3.130176
v -0.058527 0.245814 2.869824
vt 1.000000 1.000000
vt 0.968750 0.500000
vt 1.000000 0.500000
vt 0.968750 1.000000
vt 0.937500 0.500000
vt 0.937500 1.000000
vt 0.906250 0.500000
vt 0.906250 1.000000
vt 0.875000 0.500000
vt 0.875000 1.000000
vt 0.843750 0.500000
vt 0.843750 1.000000
vt 0.812500 0.500000
vt 0.812500 1.000000
vt 0.781250 0.500000
vt 0.781250 1.000000
vt 0.750000 0.500000
vt 0.750000 1.000000
vt 0.718750 0.500000
vt 0.718750 1.000000
vt 0.687500 0.500000
vt 0.687500 1.000000
vt 0.656250 0.500000
vt 0.656250 1.000000
vt 0.625000 0.500000
vt 0.625000 1.000000
vt 0.593750 0.500000
vt 0.593750 1.000000
vt 0.562500 0.500000
vt 0.562500 1.000000
vt 0.531250 0.500000
vt 0.531250 1.000000
vt 0.500000 0.500000
vt 0.500000 1.000000
vt 0.468750 0.500000
vt 0.468750 1.000000
vt 0.437500 0.500000
vt 0.437500 1.000000
vt 0.406250 0.500000
vt 0.406250 1.000000
vt 0.375000 0.500000
vt 0.375000 1.000000
vt 0.343750 0.500000
vt 0.343750 1.000000
vt 0.312500 0.500000
vt 0.312500 1.000000
vt 0.281250 0.500000
vt 0.281250 1.000000
vt 0.250000 0.500000
vt 0.250000 1.000000
vt 0.218750 0.500000
vt 0.218750 1.000000
vt 0.187500 0.500000
vt 0.187500 1.000000
vt 0.156250 0.500000
vt 0.156250 1.000000
vt 0.125000 0.500000
vt 0.125000 1.000000
vt 0.093750 0.500000
vt 0.093750 1.000000
vt 0.062500 0.500000
vt 0.028269 0.341844
vt 0.158156 0.028269
vt 0.471731 0.158156
vt 0.062500 1.000000
vt 0.031250 0.500000
vt 0.031250 1.000000
vt 0.000000 0.500000
vt 0.985388 0.296822
vt 0.796822 0.014612
vt 0.514611 0.203179
vt 0.341844 0.471731
vt 0.296822 0.485388
vt 0.250000 0.490000
vt 0.203179 0.485389
vt 0.158156 0.471731
vt 0.116663 0.449553
vt 0.080295 0.419706
vt 0.050447 0.383337
vt 0.014612 0.296822
vt 0.010000 0.250000
vt 0.014611 0.203179
vt 0.028269 0.158156
vt 0.050447 0.116663
vt 0.080294 0.080294
vt 0.116663 0.050447
vt 0.203178 0.014612
vt 0.250000 0.010000
vt 0.296822 0.014612
vt 0.341844 0.028269
vt 0.383337 0.050447
vt 0.419706 0.080294
vt 0.449553 0.116663
vt 0.485388 0.203178
vt 0.490000 0.250000
vt 0.485388 0.296822
vt 0.471731 0.341844
vt 0.449553 0.383337
vt 0.419706 0.419706
vt 0.383337 0.449553
vt 0.000000 1.000000
vt 0.703179 0.485389
vt 0.750000 0.490000
vt 0.796822 0.485388
vt 0.841844 0.471731
vt 0.883337 0.449553
vt 0.919706 0.419706
vt 0.949553 0.383337
vt 0.971731 0.341844
vt 0.990000 0.250000
vt 0.985388 0.203178
vt 0.971731 0.158156
vt 0.949553 0.116663
vt 0.919706 0.080294
vt 0.883337 0.050447
vt 0.841844 0.028269
vt 0.750000 0.010000
vt 0.703178 0.014612
vt 0.658156 0.028269
vt 0.616663 0.050447
vt 0.580294 0.080294
vt 0.550447 0.116663
vt 0.528269 0.158156
vt 0.510000 0.250000
vt 0.514612 0.296822
vt 0.528269 0.341844
vt 0.550447 0.383337
vt 0.580295 0.419706
vt 0.616663 0.449553
vt 0.658156 0.471731
vn 0.0000 0.7279 0.6857
vn 0.1420 0.7139 -0.6857
vn 0.0000 0.7279 -0.6857
vn 0.1420 0.7139 0.6857
vn 0.2785 0.6725 -0.6857
vn 0.2785 0.6725 0.6857
vn 0.4044 0.6052 -0.6857
vn 0.4044 0.6052 0.6857
vn 0.5147 0.5147 -0.6857
vn 0.5147 0.5147 0.6857
vn 0.6052 0.4044 -0.6857
vn 0.6052 0.4044 0.6857
vn 0.6725 0.2785 -0.6857
vn 0.6725 0.2785 0.6857
vn 0.7139 0.1420 -0.6857
vn 0.7139 0.1420 0.6857
vn 0.7279 0.0000 -0.6857
vn 0.7279 0.0000 0.6857
vn 0.7139 -0.1420 -0.6857
vn 0.7139 -0.1420 0.6857
vn 0.6725 -0.2785 -0.6857
vn 0.6725 -0.2785 0.6857
vn 0.6052 -0.4044 -0.6857
vn 0.6052 -0.4044 0.6857
vn 0.5147 -0.5147 -0.6857
vn 0.5147 -0.5147 0.6857
vn 0.4044 -0.6052 -0.6857
vn 0.4044 -0.6052 0.6857
vn 0.2785 -0.6725 -0.6857
vn 0.2785 -0.6725 0.6857
vn 0.1420 -0.7139 -0.6857
vn 0.1420 -0.7139 0.6857
vn 0.0000 -0.7279 -0.6857
vn 0.0000 -0.7279 0.6857
vn -0.1420 -0.7139 -0.6857
vn -0.1420 -0.7139 0.6857
vn -0.2785 -0.6725 -0.6857
vn -0.2785 -0.6725 0.6857
vn -0.4044 -0.6052 -0.6857
vn -0.4044 -0.6052 0.6857
vn -0.5147 -0.5147 -0.6857
vn -0.5147 -0.5147 0.6857
vn -0.6052 -0.4044 -0.6857
vn -0.6052 -0.4044 0.6857
vn -0.6724 -0.2785 -0.6857
vn -0.6725 -0.2785 0.6857
vn -0.7139 -0.1420 -0.6857
vn -0.7139 -0.1420 0.6857
vn -0.7279 0.0000 -0.6857
vn -0.7279 0.0000 0.6857
vn -0.7139 0.1420 -0.6857
vn -0.7139 0.1420 0.6857
vn -0.6725 0.2785 -0.6857
vn -0.6725 0.2785 0.6857
vn -0.6052 0.4044 -0.6857
vn -0.6052 0.4044 0.6857
vn -0.5147 0.5147 -0.6857
vn -0.5147 0.5147 0.6857
vn -0.4044 0.6052 -0.6857
vn -0.4044 0.6052 0.6857
vn -0.2785 0.6725 -0.6857
vn -0.2785 0.6725 0.6857
vn -0.1420 0.7139 -0.6857
vn -0.1420 0.7139 0.6857
s 1
f 2/1/1 3/2/2 1/3/3
f 4/4/4 5/5/5 3/2/2
f 6/6/6 7/7/7 5/5/5
f 8/8/8 9/9/9 7/7/7
f 10/10/10 11/11/11 9/9/9
f 12/12/12 13/13/13 11/11/11
f 14/14/14 15/15/15 13/13/13
f 16/16/16 17/17/17 15/15/15
f 18/18/18 19/19/19 17/17/17
f 20/20/20 21/21/21 19/19/19
f 22/22/22 23/23/23 21/21/21
f 24/24/24 25/25/25 23/23/23
f 26/26/26 27/27/27 25/25/25
f 28/28/28 29/29/29 27/27/27
f 30/30/30 31/31/31 29/29/29
f 32/32/32 33/33/33 31/31/31
f 34/34/34 35/35/35 33/33/33
f 36/36/36 37/37/37 35/35/35
f 38/38/38 39/39/39 37/37/37
f 40/40/40 41/41/41 39/39/39
f 42/42/42 43/43/43 41/41/41
f 44/44/44 45/45/45 43/43/43
f 46/46/46 47/47/47 45/45/45
f 48/48/48 49/49/49 47/47/47
f 50/50/50 51/51/51 49/49/49
f 52/52/52 53/53/53 51/51/51
f 54/54/54 55/55/55 53/53/53
f 56/56/56 57/57/57 55/55/55
f 58/58/58 59/59/59 57/57/57
f 60/60/60 61/61/61 59/59/59
f 54/62/54 38/63/38 22/64/22
f 62/65/62 63/66/63 61/61/61
f 64/67/64 1/68/3 63/66/63
f 15/69/15 31/70/31 47/71/47
f 2/1/1 4/4/4 3/2/2
f 4/4/4 6/6/6 5/5/5
f 6/6/6 8/8/8 7/7/7
f 8/8/8 10/10/10 9/9/9
f 10/10/10 12/12/12 11/11/11
f 12/12/12 14/14/14 13/13/13
f 14/14/14 16/16/16 15/15/15
f 16/16/16 18/18/18 17/17/17
f 18/18/18 20/20/20 19/19/19
f 20/20/20 22/22/22 21/21/21
f 22/22/22 24/24/24 23/23/23
f 24/24/24 26/26/26 25/25/25
f 26/26/26 28/28/28 27/27/27
f 28/28/28 30/30/30 29/29/29
f 30/30/30 32/32/32 31/31/31
f 32/32/32 34/34/34 33/33/33
f 34/34/34 36/36/36 35/35/35
f 36/36/36 38/38/38 37/37/37
f 38/38/38 40/40/40 39/39/39
f 40/40/40 42/42/42 41/41/41
f 42/42/42 44/44/44 43/43/43
f 44/44/44 46/46/46 45/45/45
f 46/46/46 48/48/48 47/47/47
f 48/48/48 50/50/50 49/49/49
f 50/50/50 52/52/52 51/51/51
f 52/52/52 54/54/54 53/53/53
f 54/54/54 56/56/56 55/55/55
f 56/56/56 58/58/58 57/57/57
f 58/58/58 60/60/60 59/59/59
f 60/60/60 62/65/62 61/61/61
f 6/72/6 4/73/4 2/74/1
f 2/74/1 64/75/64 6/72/6
f 64/75/64 62/76/62 6/72/6
f 62/76/62 60/77/60 58/78/58
f 58/78/58 56/79/56 54/62/54
f 54/62/54 52/80/52 50/81/50
f 50/81/50 48/82/48 54/62/54
f 48/82/48 46/83/46 54/62/54
f 46/83/46 44/84/44 38/63/38
f 44/84/44 42/85/42 38/63/38
f 42/85/42 40/86/40 38/63/38
f 38/63/38 36/87/36 34/88/34
f 34/88/34 32/89/32 30/90/30
f 30/90/30 28/91/28 26/92/26
f 26/92/26 24/93/24 22/64/22
f 22/64/22 20/94/20 18/95/18
f 18/95/18 16/96/16 22/64/22
f 16/96/16 14/97/14 22/64/22
f 14/97/14 12/98/12 10/99/10
f 10/99/10 8/100/8 6/72/6
f 62/76/62 58/78/58 6/72/6
f 58/78/58 54/62/54 6/72/6
f 38/63/38 34/88/34 22/64/22
f 34/88/34 30/90/30 22/64/22
f 30/90/30 26/92/26 22/64/22
f 14/97/14 10/99/10 22/64/22
f 10/99/10 6/72/6 22/64/22
f 54/62/54 46/83/46 38/63/38
f 6/72/6 54/62/54 22/64/22
f 62/65/62 64/67/64 63/66/63
f 64/67/64 2/101/1 1/68/3
f 63/102/63 1/103/3 3/104/2
f 3/104/2 5/105/5 7/106/7
f 7/106/7 9/107/9 11/108/11
f 11/108/11 13/109/13 7/106/7
f 13/109/13 15/69/15 7/106/7
f 15/69/15 17/110/17 19/111/19
f 19/111/19 21/112/21 15/69/15
f 21/112/21 23/113/23 15/69/15
f 23/113/23 25/114/25 31/70/31
f 25/114/25 27/115/27 31/70/31
f 27/115/27 29/116/29 31/70/31
f 31/70/31 33/117/33 35/118/35
f 35/118/35 37/119/37 39/120/39
f 39/120/39 41/121/41 43/122/43
f 43/122/43 45/123/45 47/71/47
f 47/71/47 49/124/49 51/125/51
f 51/125/51 53/126/53 55/127/55
f 55/127/55 57/128/57 63/102/63
f 57/128/57 59/129/59 63/102/63
f 59/129/59 61/130/61 63/102/63
f 63/102/63 3/104/2 7/106/7
f 31/70/31 35/118/35 47/71/47
f 35/118/35 39/120/39 47/71/47
f 39/120/39 43/122/43 47/71/47
f 47/71/47 51/125/51 63/102/63
f 51/125/51 55/127/55 63/102/63
f 63/102/63 7/106/7 15/69/15
f 15/69/15 23/113/23 31/70/31
f 63/102/63 15/69/15 47/71/47
o Cylinder_roller.001_Cylinder.001
v 1.104631 -0.747017 -3.130176
v 1.104631 -0.747017 2.869824
v 1.124140 -0.748939 -3.130176
v 1.124140 -0.748939 2.869824
v 1.142899 -0.754629 -3.130176
v 1.142899 -0.754629 2.869824
v 1.160188 -0.763870 -3.130176
v 1.160188 -0.763870 2.869824
v 1.175342 -0.776306 -3.130176
v 1.175342 -0.776307 2.869824
v 1.187778 -0.791460 -3.130176
v 1.187778 -0.791460 2.869824
v 1.197019 -0.808749 -3.130176
v 1.197019 -0.808749 2.869824
v 1.202709 -0.827508 -3.130176
v 1.202709 -0.827508 2.869824
v 1.204631 -0.847017 -3.130176
v 1.204631 -0.847017 2.869824
v 1.202709 -0.866526 -3.130176
v 1.202709 -0.866526 2.869824
v 1.197019 -0.885285 -3.130176
v 1.197019 -0.885286 2.869824
v 1.187778 -0.902574 -3.130176
v 1.187778 -0.902574 2.869824
v 1.175342 -0.917728 -3.130176
v 1.175342 -0.917728 2.869824
v 1.160188 -0.930164 -3.130176
v 1.160188 -0.930164 2.869824
v 1.142899 -0.939405 -3.130176
v 1.142899 -0.939405 2.869824
v 1.124140 -0.945096 -3.130176
v 1.124140 -0.945096 2.869824
v 1.104631 -0.947017 -3.130176
v 1.104631 -0.947017 2.869824
v 1.085122 -0.945096 -3.130176
v 1.085122 -0.945096 2.869824
v 1.066363 -0.939405 -3.130176
v 1.066363 -0.939405 2.869824
v 1.049074 -0.930164 -3.130176
v 1.049074 -0.930164 2.869824
v 1.033920 -0.917728 -3.130176
v 1.033920 -0.917728 2.869824
v 1.021484 -0.902574 -3.130176
v 1.021484 -0.902574 2.869824
v 1.012243 -0.885285 -3.130176
v 1.012243 -0.885286 2.869824
v 1.006552 -0.866526 -3.130176
v 1.006552 -0.866526 2.869824
v 1.004631 -0.847017 -3.130176
v 1.004631 -0.847017 2.869824
v 1.006552 -0.827508 -3.130176
v 1.006552 -0.827508 2.869824
v 1.012243 -0.808749 -3.130176
v 1.012243 -0.808749 2.869824
v 1.021484 -0.791460 -3.130176
v 1.021484 -0.791460 2.869824
v 1.033920 -0.776306 -3.130176
v 1.033920 -0.776307 2.869824
v 1.049074 -0.763870 -3.130176
v 1.049074 -0.763870 2.869824
v 1.066363 -0.754629 -3.130176
v 1.066363 -0.754629 2.869824
v 1.085122 -0.748939 -3.130176
v 1.085122 -0.748939 2.869824
vt 1.000000 1.000000
vt 0.968750 0.500000
vt 1.000000 0.500000
vt 0.968750 1.000000
vt 0.937500 0.500000
vt 0.937500 1.000000
vt 0.906250 0.500000
vt 0.906250 1.000000
vt 0.875000 0.500000
vt 0.875000 1.000000
vt 0.843750 0.500000
vt 0.843750 1.000000
vt 0.812500 0.500000
vt 0.812500 1.000000
vt 0.781250 0.500000
vt 0.781250 1.000000
vt 0.750000 0.500000
vt 0.750000 1.000000
vt 0.718750 0.500000
vt 0.718750 1.000000
vt 0.687500 0.500000
vt 0.687500 1.000000
vt 0.656250 0.500000
vt 0.656250 1.000000
vt 0.625000 0.500000
vt 0.625000 1.000000
vt 0.593750 0.500000
vt 0.593750 1.000000
vt 0.562500 0.500000
vt 0.562500 1.000000
vt 0.531250 0.500000
vt 0.531250 1.000000
vt 0.500000 0.500000
vt 0.500000 1.000000
vt 0.468750 0.500000
vt 0.468750 1.000000
vt 0.437500 0.500000
vt 0.437500 1.000000
vt 0.406250 0.500000
vt 0.406250 1.000000
vt 0.375000 0.500000
vt 0.375000 1.000000
vt 0.343750 0.500000
vt 0.343750 1.000000
vt 0.312500 0.500000
vt 0.312500 1.000000
vt 0.281250 0.500000
vt 0.281250 1.000000
vt 0.250000 0.500000
vt 0.250000 1.000000
vt 0.218750 0.500000
vt 0.218750 1.000000
vt 0.187500 0.500000
vt 0.187500 1.000000
vt 0.156250 0.500000
vt 0.156250 1.000000
vt 0.125000 0.500000
vt 0.125000 1.000000
vt 0.093750 0.500000
vt 0.093750 1.000000
vt 0.062500 0.500000
vt 0.028269 0.341844
vt 0.158156 0.028269
vt 0.471731 0.158156
vt 0.062500 1.000000
vt 0.031250 0.500000
vt 0.031250 1.000000
vt 0.000000 0.500000
vt 0.985388 0.296822
vt 0.796822 0.014612
vt 0.514611 0.203179
vt 0.341844 0.471731
vt 0.296822 0.485388
vt 0.250000 0.490000
vt 0.203179 0.485389
vt 0.158156 0.471731
vt 0.116663 0.449553
vt 0.080295 0.419706
vt 0.050447 0.383337
vt 0.014612 0.296822
vt 0.010000 0.250000
vt 0.014611 0.203179
vt 0.028269 0.158156
vt 0.050447 0.116663
vt 0.080294 0.080294
vt 0.116663 0.050447
vt 0.203178 0.014612
vt 0.250000 0.010000
vt 0.296822 0.014612
vt 0.341844 0.028269
vt 0.383337 0.050447
vt 0.419706 0.080294
vt 0.449553 0.116663
vt 0.485388 0.203178
vt 0.490000 0.250000
vt 0.485388 0.296822
vt 0.471731 0.341844
vt 0.449553 0.383337
vt 0.419706 0.419706
vt 0.383337 0.449553
vt 0.000000 1.000000
vt 0.703179 0.485389
vt 0.750000 0.490000
vt 0.796822 0.485388
vt 0.841844 0.471731
vt 0.883337 0.449553
vt 0.919706 0.419706
vt 0.949553 0.383337
vt 0.971731 0.341844
vt 0.990000 0.250000
vt 0.985388 0.203178
vt 0.971731 0.158156
vt 0.949553 0.116663
vt 0.919706 0.080294
vt 0.883337 0.050447
vt 0.841844 0.028269
vt 0.750000 0.010000
vt 0.703178 0.014612
vt 0.658156 0.028269
vt 0.616663 0.050447
vt 0.580294 0.080294
vt 0.550447 0.116663
vt 0.528269 0.158156
vt 0.510000 0.250000
vt 0.514612 0.296822
vt 0.528269 0.341844
vt 0.550447 0.383337
vt 0.580295 0.419706
vt 0.616663 0.449553
vt 0.658156 0.471731
vn 0.0000 0.7279 0.6857
vn 0.1420 0.7139 -0.6857
vn 0.0000 0.7279 -0.6857
vn 0.1420 0.7139 0.6857
vn 0.2786 0.6724 -0.6857
vn 0.2785 0.6725 0.6857
vn 0.4044 0.6052 -0.6857
vn 0.4044 0.6052 0.6857
vn 0.5146 0.5147 -0.6857
vn 0.5147 0.5147 0.6857
vn 0.6052 0.4044 -0.6857
vn 0.6052 0.4044 0.6857
vn 0.6725 0.2785 -0.6857
vn 0.6725 0.2785 0.6857
vn 0.7139 0.1420 -0.6857
vn 0.7139 0.1420 0.6857
vn 0.7279 0.0000 -0.6857
vn 0.7279 0.0000 0.6857
vn 0.7139 -0.1420 -0.6856
vn 0.7139 -0.1420 0.6857
vn 0.6725 -0.2785 -0.6857
vn 0.6725 -0.2785 0.6857
vn 0.6052 -0.4044 -0.6857
vn 0.6052 -0.4044 0.6857
vn 0.5147 -0.5147 -0.6857
vn 0.5147 -0.5147 0.6857
vn 0.4044 -0.6052 -0.6857
vn 0.4044 -0.6052 0.6857
vn 0.2785 -0.6725 -0.6857
vn 0.2785 -0.6725 0.6857
vn 0.1420 -0.7139 -0.6857
vn 0.1420 -0.7139 0.6857
vn 0.0000 -0.7279 -0.6857
vn 0.0000 -0.7279 0.6857
vn -0.1420 -0.7139 -0.6857
vn -0.1420 -0.7139 0.6857
vn -0.2786 -0.6724 -0.6857
vn -0.2785 -0.6725 0.6857
vn -0.4044 -0.6052 -0.6857
vn -0.4044 -0.6052 0.6857
vn -0.5146 -0.5147 -0.6857
vn -0.5147 -0.5147 0.6857
vn -0.6052 -0.4044 -0.6857
vn -0.6052 -0.4044 0.6857
vn -0.6725 -0.2785 -0.6857
vn -0.6725 -0.2785 0.6857
vn -0.7139 -0.1420 -0.6857
vn -0.7139 -0.1420 0.6857
vn -0.7279 0.0000 -0.6857
vn -0.7279 0.0000 0.6857
vn -0.7139 0.1420 -0.6857
vn -0.7139 0.1420 0.6857
vn -0.6725 0.2785 -0.6857
vn -0.6725 0.2785 0.6857
vn -0.6052 0.4044 -0.6857
vn -0.6052 0.4044 0.6857
vn -0.5147 0.5147 -0.6857
vn -0.5147 0.5147 0.6857
vn -0.4044 0.6052 -0.6857
vn -0.4044 0.6052 0.6857
vn -0.2785 0.6725 -0.6857
vn -0.2785 0.6725 0.6857
vn -0.1420 0.7139 -0.6857
vn -0.1420 0.7139 0.6857
s 1
f 66/131/65 67/132/66 65/133/67
f 68/134/68 69/135/69 67/132/66
f 70/136/70 71/137/71 69/135/69
f 72/138/72 73/139/73 71/137/71
f 74/140/74 75/141/75 73/139/73
f 76/142/76 77/143/77 75/141/75
f 78/144/78 79/145/79 77/143/77
f 80/146/80 81/147/81 79/145/79
f 82/148/82 83/149/83 81/147/81
f 84/150/84 85/151/85 83/149/83
f 86/152/86 87/153/87 85/151/85
f 88/154/88 89/155/89 87/153/87
f 90/156/90 91/157/91 89/155/89
f 92/158/92 93/159/93 91/157/91
f 94/160/94 95/161/95 93/159/93
f 96/162/96 97/163/97 95/161/95
f 98/164/98 99/165/99 97/163/97
f 100/166/100 101/167/101 99/165/99
f 102/168/102 103/169/103 101/167/101
f 104/170/104 105/171/105 103/169/103
f 106/172/106 107/173/107 105/171/105
f 108/174/108 109/175/109 107/173/107
f 110/176/110 111/177/111 109/175/109
f 112/178/112 113/179/113 111/177/111
f 114/180/114 115/181/115 113/179/113
f 116/182/116 117/183/117 115/181/115
f 118/184/118 119/185/119 117/183/117
f 120/186/120 121/187/121 119/185/119
f 122/188/122 123/189/123 121/187/121
f 124/190/124 125/191/125 123/189/123
f 118/192/118 102/193/102 86/194/86
f 126/195/126 127/196/127 125/191/125
f 128/197/128 65/198/67 127/196/127
f 79/199/79 95/200/95 111/201/111
f 66/131/65 68/134/68 67/132/66
f 68/134/68 70/136/70 69/135/69
f 70/136/70 72/138/72 71/137/71
f 72/138/72 74/140/74 73/139/73
f 74/140/74 76/142/76 75/141/75
f 76/142/76 78/144/78 77/143/77
f 78/144/78 80/146/80 79/145/79
f 80/146/80 82/148/82 81/147/81
f 82/148/82 84/150/84 83/149/83
f 84/150/84 86/152/86 85/151/85
f 86/152/86 88/154/88 87/153/87
f 88/154/88 90/156/90 89/155/89
f 90/156/90 92/158/92 91/157/91
f 92/158/92 94/160/94 93/159/93
f 94/160/94 96/162/96 95/161/95
f 96/162/96 98/164/98 97/163/97
f 98/164/98 100/166/100 99/165/99
f 100/166/100 102/168/102 101/167/101
f 102/168/102 104/170/104 103/169/103
f 104/170/104 106/172/106 105/171/105
f 106/172/106 108/174/108 107/173/107
f 108/174/108 110/176/110 109/175/109
f 110/176/110 112/178/112 111/177/111
f 112/178/112 114/180/114 113/179/113
f 114/180/114 116/182/116 115/181/115
f 116/182/116 118/184/118 117/183/117
f 118/184/118 120/186/120 119/185/119
f 120/186/120 122/188/122 121/187/121
f 122/188/122 124/190/124 123/189/123
f 124/190/124 126/195/126 125/191/125
f 70/202/70 68/203/68 66/204/65
f 66/204/65 128/205/128 70/202/70
f 128/205/128 126/206/126 70/202/70
f 126/206/126 124/207/124 122/208/122
f 122/208/122 120/209/120 118/192/118
f 118/192/118 116/210/116 114/211/114
f 114/211/114 112/212/112 118/192/118
f 112/212/112 110/213/110 118/192/118
f 110/213/110 108/214/108 102/193/102
f 108/214/108 106/215/106 102/193/102
f 106/215/106 104/216/104 102/193/102
f 102/193/102 100/217/100 98/218/98
f 98/218/98 96/219/96 94/220/94
f 94/220/94 92/221/92 90/222/90
f 90/222/90 88/223/88 86/194/86
f 86/194/86 84/224/84 82/225/82
f 82/225/82 80/226/80 86/194/86
f 80/226/80 78/227/78 86/194/86
f 78/227/78 76/228/76 74/229/74
f 74/229/74 72/230/72 70/202/70
f 126/206/126 122/208/122 70/202/70
f 122/208/122 118/192/118 70/202/70
f 102/193/102 98/218/98 86/194/86
f 98/218/98 94/220/94 86/194/86
f 94/220/94 90/222/90 86/194/86
f 78/227/78 74/229/74 86/194/86
f 74/229/74 70/202/70 86/194/86
f 118/192/118 110/213/110 102/193/102
f 70/202/70 118/192/118 86/194/86
f 126/195/126 128/197/128 127/196/127
f 128/197/128 66/231/65 65/198/67
f 127/232/127 65/233/67 67/234/66
f 67/234/66 69/235/69 71/236/71
f 71/236/71 73/237/73 75/238/75
f 75/238/75 77/239/77 71/236/71
f 77/239/77 79/199/79 71/236/71
f 79/199/79 81/240/81 83/241/83
f 83/241/83 85/242/85 79/199/79
f 85/242/85 87/243/87 79/199/79
f 87/243/87 89/244/89 95/200/95
f 89/244/89 91/245/91 95/200/95
f 91/245/91 93/246/93 95/200/95
f 95/200/95 97/247/97 99/248/99
f 99/248/99 101/249/101 103/250/103
f 103/250/103 105/251/105 107/252/107
f 107/252/107 109/253/109 111/201/111
f 111/201/111 113/254/113 115/255/115
f 115/255/115 117/256/117 119/257/119
f 119/257/119 121/258/121 127/232/127
f 121/258/121 123/259/123 127/232/127
f 123/259/123 125/260/125 127/232/127
f 127/232/127 67/234/66 71/236/71
f 95/200/95 99/248/99 111/201/111
f 99/248/99 103/250/103 111/201/111
f 103/250/103 107/252/107 111/201/111
f 111/201/111 115/255/115 127/232/127
f 115/255/115 119/257/119 127/232/127
f 127/232/127 71/236/71 79/199/79
f 79/199/79 87/243/87 95/200/95
f 127/232/127 79/199/79 111/201/111
